# xmcd
#
# Track frame offsets:
# 150
# 12141
# 27854
# 47563
# 62759
# 79913
# 96435
# 109083
# 126957
# 157951
# 175820
# 196437
#
# Disc length: 2991 seconds
#
#
# Revision: 0
# Processed by: cddbd v1.5.2PL0 Copyright (c) Steve Scherf et al.
# Submitted via: Nero 7, 11, 10, 0 
#
DISCID=970bad0c
DTITLE=Mike's Blue Groove - Absolutly
DYEAR=2006
DGENRE=Blues
TTITLE0=Hydramatic Woman
TTITLE1=The Hustle Is On
TTITLE2=Hey Hey Baby
TTITLE3=Tried To Call You
TTITLE4=She's My Baby
TTITLE5=I Got Love If You Want It
TTITLE6=I'm Tryin'
TTITLE7=She's Mine
TTITLE8=Telephone Blues
TTITLE9=Threehoundred Pounds Of Joy
TTITLE10=Too Tired
TTITLE11=Bite Again, Bite Again
EXTD=
EXTT0=Hydramatic Woman
EXTT1=The Hustle Is On
EXTT2=Hey Hey Baby
EXTT3=Tried To Call You
EXTT4=She's My Baby
EXTT5=I Got Love If You Want It
EXTT6=I'm Tryin'
EXTT7=She's Mine
EXTT8=Telephone Blues
EXTT9=Threehoundred Pounds Of Joy
EXTT10=Too Tired
EXTT11=Bite Again, Bite Again
PLAYORDER=
